<?xml version="1.0" encoding="UTF-8" standalone="no"?>
<svg
   version="1.1"
   width="100.000000mm"
   height="80.000000mm"
   viewBox="0.000000 -80.000000 100.000000 80.000000"
   id="svg649"
   sodipodi:docname="daglig_brd.svg"
   inkscape:version="1.1.1 (3bf5ae0d25, 2021-09-20)"
   xmlns:inkscape="http://www.inkscape.org/namespaces/inkscape"
   xmlns:sodipodi="http://sodipodi.sourceforge.net/DTD/sodipodi-0.dtd"
   xmlns="http://www.w3.org/2000/svg"
   xmlns:svg="http://www.w3.org/2000/svg">
  <sodipodi:namedview
     id="namedview651"
     pagecolor="#ffffff"
     bordercolor="#666666"
     borderopacity="1.0"
     inkscape:pageshadow="2"
     inkscape:pageopacity="0.0"
     inkscape:pagecheckerboard="0"
     inkscape:document-units="mm"
     showgrid="false"
     inkscape:zoom="2.0769792"
     inkscape:cx="62.831636"
     inkscape:cy="188.01344"
     inkscape:window-width="1440"
     inkscape:window-height="855"
     inkscape:window-x="0"
     inkscape:window-y="0"
     inkscape:window-maximized="1"
     inkscape:current-layer="svg649" />
  <title
     id="title2">/home/liquidsquid/EAGLE/projects/AquariumDaglig/daglig.brd</title>
  <desc
     id="desc4">generated by eagle2svg 1.3, </desc>
  <defs
     id="defs8">
    <style
       type="text/css"
       id="style6"><![CDATA[
path.l1 {
  stroke:#000000;
  fill:none;
}
line.l1 {
  stroke:#000000;
  fill:none;
}
circle.l1 {
  stroke:#c90d0c;
  fill:none;
}
circle.j1 {
  fill:#000000;
}
rect.l1 {
  fill:#000000;
}
text.l1 {
  font-family:sans-serif;
  fill:#c90d0c;
}
polygon.l1 {
  fill:#000000;
}
path.l17 {
  stroke:#3ddc97;
  fill:none;
}
line.l17 {
  stroke:#3ddc97;
  fill:none;
}
circle.l17 {
  stroke:#3ddc97;
  fill:none;
}
circle.j17 {
  fill:#3ddc97;
}
rect.l17 {
  fill:#3ddc97;
}
text.l17 {
  font-family:sans-serif;
  fill:#3ddc97;
}
polygon.l17 {
  fill:#3ddc97;
}
path.l18 {
  stroke:#3ddc97;
  fill:none;
}
line.l18 {
  stroke:#3ddc97;
  fill:none;
}
circle.l18 {
  stroke:#3ddc97;
  fill:none;
}
circle.j18 {
  fill:#3ddc97;
}
rect.l18 {
  fill:#3ddc97;
}
text.l18 {
  font-family:sans-serif;
  fill:#3ddc97;
}
polygon.l18 {
  fill:#3ddc97;
}
path.l20 {
  stroke:#eec643;
  fill:none;
}
line.l20 {
  stroke:#eec643;
  fill:none;
}
circle.l20 {
  stroke:#ffffff;
  fill:none;
}
circle.j20 {
  fill:#eec643;
}
rect.l20 {
  fill:#eec643;
}
text.l20 {
  font-family:sans-serif;
  fill:#eec643;
}
polygon.l20 {
  fill:#eec643;
}
path.l44 {
  stroke:#ffffff;
  fill:none;
}
line.l44 {
  stroke:#ffffff;
  fill:none;
}
circle.l44 {
  stroke:#ffffff;
  fill:none;
}
circle.j44 {
  fill:#ffffff;
}
rect.l44 {
  fill:#ffffff;
}
text.l44 {
  font-family:sans-serif;
  fill:#ffffff;
}
polygon.l44 {
  fill:#ffffff;
}
path.l45 {
  stroke:#ffffff;
  fill:none;
}
line.l45 {
  stroke:#ffffff;
  fill:none;
}
circle.l45 {
  stroke:#ffffff;
  fill:none;
}
circle.j45 {
  fill:#ffffff;
}
rect.l45 {
  fill:#ffffff;
}
text.l45 {
  font-family:sans-serif;
  fill:#ffffff;
}
polygon.l45 {
  fill:#ffffff;
}
]]></style>
  </defs>
  <line
     class="l1"
     x1="41.950001"
     y1="-29.200001"
     x2="43.599998"
     y2="-30.85"
     style="stroke-width:0.6;stroke-linecap:round"
     id="line10" />
  <line
     class="l1"
     x1="43.599998"
     y1="-30.85"
     x2="43.599998"
     y2="-30.895"
     style="stroke-width:0.6;stroke-linecap:round"
     id="line12" />
  <line
     class="l1"
     x1="40.84"
     y1="-25.860001"
     x2="40.84"
     y2="-26.440001"
     style="stroke-width:0.6;stroke-linecap:round"
     id="line14" />
  <line
     class="l1"
     x1="41.950001"
     y1="-27.549999"
     x2="41.950001"
     y2="-29.200001"
     style="stroke-width:0.6;stroke-linecap:round"
     id="line16" />
  <line
     class="l1"
     x1="40.84"
     y1="-26.440001"
     x2="41.950001"
     y2="-27.549999"
     style="stroke-width:0.6;stroke-linecap:round"
     id="line18" />
  <line
     class="l1"
     x1="40.84"
     y1="-25.860001"
     x2="42.759998"
     y2="-25.860001"
     style="stroke-width:0.6;stroke-linecap:round"
     id="line20" />
  <line
     class="l1"
     x1="42.759998"
     y1="-25.860001"
     x2="42.799999"
     y2="-25.9"
     style="stroke-width:0.6;stroke-linecap:round"
     id="line22" />
  <line
     class="l1"
     x1="41.950001"
     y1="-29.200001"
     x2="42.849998"
     y2="-28.299999"
     style="stroke-width:0.4;stroke-linecap:round"
     id="line24" />
  <line
     class="l1"
     x1="42.849998"
     y1="-28.299999"
     x2="44.25"
     y2="-28.299999"
     style="stroke-width:0.4;stroke-linecap:round"
     id="line26" />
  <line
     class="l1"
     x1="41.950001"
     y1="-29.200001"
     x2="41.950001"
     y2="-30.25"
     style="stroke-width:0.6;stroke-linecap:round"
     id="line28" />
  <line
     class="l1"
     x1="40.200001"
     y1="-32"
     x2="40.200001"
     y2="-35.599998"
     style="stroke-width:0.6;stroke-linecap:round"
     id="line30" />
  <line
     class="l1"
     x1="40.200001"
     y1="-35.599998"
     x2="39.404999"
     y2="-36.395"
     style="stroke-width:0.6;stroke-linecap:round"
     id="line32" />
  <line
     class="l1"
     x1="39.404999"
     y1="-36.395"
     x2="38.400002"
     y2="-36.395"
     style="stroke-width:0.6;stroke-linecap:round"
     id="line34" />
  <line
     class="l1"
     x1="41.950001"
     y1="-30.25"
     x2="40.200001"
     y2="-32"
     style="stroke-width:0.6;stroke-linecap:round"
     id="line36" />
  <line
     class="l1"
     x1="34.25"
     y1="-38"
     x2="35.299999"
     y2="-38"
     style="stroke-width:0.6;stroke-linecap:round"
     id="line38" />
  <line
     class="l1"
     x1="36.904999"
     y1="-36.395"
     x2="38.400002"
     y2="-36.395"
     style="stroke-width:0.6;stroke-linecap:round"
     id="line40" />
  <line
     class="l1"
     x1="35.299999"
     y1="-38"
     x2="36.904999"
     y2="-36.395"
     style="stroke-width:0.6;stroke-linecap:round"
     id="line42" />
  <line
     class="l1"
     x1="42.799999"
     y1="-44.400002"
     x2="42.540001"
     y2="-44.66"
     style="stroke-width:0.6;stroke-linecap:round"
     id="line44" />
  <line
     class="l1"
     x1="42.540001"
     y1="-44.66"
     x2="42.540001"
     y2="-49"
     style="stroke-width:0.6;stroke-linecap:round"
     id="line46" />
  <circle
     class="j1"
     cx="42.799999"
     cy="-25.9"
     r="1"
     id="circle48" />
  <circle
     class="j44"
     cx="42.799999"
     cy="-25.9"
     r="0.30000001"
     id="circle50" />
  <circle
     class="j1"
     cx="42.799999"
     cy="-44.400002"
     r="1"
     id="circle52" />
  <circle
     class="j44"
     cx="42.799999"
     cy="-44.400002"
     r="0.30000001"
     id="circle54" />
  <path
     class="l1"
     style="stroke-width:0.6;stroke-linecap:round"
     d="m 53.545869,-27.32 h 1.268547 m 0,0 1.685584,1.685584 m 0,0 v 4.354419 m 0,0 h -2.954131 m 0,0 -0.294035,0.121794 m 0,0 -0.22504,0.22504 m 0,0 -0.05516,0.133166 m 0,0 h -2.87164 m 0,0 V -21.3 m 0,0 H 50.3188 m 0,0 0.404294,-0.167466 m 0,0 1.5,-1.5 m 0,0 0.309434,-0.309434 m 0,0 0.167466,-0.404294 m 0,0 v -14.037609 m 0,0 -0.167466,-0.404294 m 0,0 -1.744434,-1.744434 m 0,0 -0.404294,-0.167466 m 0,0 h -5.129806 m 0,0 v -0.169984 m 0,0 h -1.653966 m 0,0 v -3.2e-5 m 0,0 h 1.653966 m 0,0 v -0.372921 m 0,0 -0.0099,-0.03712 m 0,0 0.06978,-0.0187 m 0,0 0.126328,-0.07294 m 0,0 0.103147,-0.103146 m 0,0 0.07294,-0.126329 m 0,0 0.03775,-0.1409 m 0,0 V -41.875 m 0,0 h -1.178978 m 0,0 v -0.05 m 0,0 h 1.178978 m 0,0 v -0.797934 m 0,0 -0.03775,-0.1409 m 0,0 -0.07294,-0.126329 m 0,0 -0.103147,-0.103146 m 0,0 -0.126328,-0.07294 m 0,0 -0.1409,-0.03775 m 0,0 H 44.475 m 0,0 v 1.278978 m 0,0 h -0.05001 m 0,0 v -1.278978 m 0,0 h -0.275419 m 0,0 0.176388,-0.176384 m 0,0 0.274034,-0.661575 m 0,0 v -0.716085 m 0,0 -0.274034,-0.661575 m 0,0 -0.506347,-0.506347 m 0,0 -0.179619,-0.0744 m 0,0 v -1.128634 m 0,0 0.2242,-0.2242 m 0,0 0.2378,-0.5741 m 0,0 V -50.0727 m 0,0 -0.2378,-0.5741 m 0,0 -0.439397,-0.439397 m 0,0 -0.5741,-0.2378 m 0,0 h -0.621403 m 0,0 -0.5741,0.2378 m 0,0 -0.385197,0.3852 m 0,0 -0.3852,-0.3852 m 0,0 -0.5741,-0.2378 m 0,0 h -0.621403 m 0,0 -0.5741,0.2378 m 0,0 -0.439397,0.439397 m 0,0 -0.08504,0.205312 m 0,0 -0.0052,-0.01024 m 0,0 -0.121753,-0.167585 m 0,0 -0.146472,-0.146472 m 0,0 -0.167585,-0.121753 m 0,0 -0.184562,-0.09404 m 0,0 -0.197006,-0.06401 m 0,0 -0.204591,-0.0324 m 0,0 h -0.103559 m 0,0 v 2.077966 m 0,0 h -3.2e-5 m 0,0 v -2.077966 m 0,0 H 37.35644 m 0,0 -0.204591,0.0324 m 0,0 -0.197006,0.06401 m 0,0 -0.184562,0.09404 m 0,0 -0.167585,0.121753 m 0,0 -0.146472,0.146472 m 0,0 -0.121753,0.167585 m 0,0 -0.09404,0.184562 m 0,0 -0.06401,0.197006 m 0,0 -0.0324,0.204591 m 0,0 v 0.865559 m 0,0 h 1.315966 m 0,0 v 3.2e-5 m 0,0 h -1.315969 m 0,0 v 0.05986 m 0,0 -0.385956,-0.159872 m 0,0 h -0.716085 m 0,0 -0.661575,0.274034 m 0,0 -0.506347,0.506347 m 0,0 L 33.6,-47.658041 m 0,0 v 0.716085 m 0,0 0.274034,0.661575 m 0,0 0.506347,0.506347 m 0,0 0.661575,0.274034 m 0,0 h 0.716085 m 0,0 0.661575,-0.274034 m 0,0 0.02596,-0.02597 m 0,0 h 3.173222 m 0,0 0.404294,-0.167466 m 0,0 0.6,-0.6 m 0,0 0.309434,-0.309434 m 0,0 0.05984,-0.144475 m 0,0 L 41.27,-47.299 m 0,0 0.17,0.170003 m 0,0 v 1.543416 m 0,0 -0.165966,0.165965 m 0,0 -0.04876,0.117713 m 0,0 -0.111444,-0.06434 m 0,0 -0.1409,-0.03775 m 0,0 H 40.275 m 0,0 v 1.278978 m 0,0 h -0.05001 m 0,0 v -1.278978 m 0,0 h -0.647625 m 0,0 -0.124206,-0.124206 m 0,0 -0.294035,-0.121794 m 0,0 h -1.618259 m 0,0 -0.294035,0.121794 m 0,0 -0.22504,0.225041 m 0,0 -0.12179,0.29403 m 0,0 v 0.3035 m 0,0 -0.8231,0.823097 m 0,0 -0.309434,0.309434 m 0,0 L 35.6,-43.168803 m 0,0 v 0.168806 m 0,0 h -2.518806 m 0,0 -0.404294,0.167466 m 0,0 -1.082534,1.082534 m 0,0 h -0.0535 m 0,0 -0.294035,0.121794 m 0,0 -0.22504,0.22504 m 0,0 L 30.9,-41.109128 m 0,0 v 1.818259 m 0,0 0.121794,0.294035 m 0,0 0.134709,0.134706 m 0,0 -0.0105,0.03919 m 0,0 -3e-6,0.797934 m 0,0 h 1.178981 m 0,0 v 0.05001 m 0,0 H 31.146 m 0,0 v 0.797931 m 0,0 0.03775,0.1409 m 0,0 0.07294,0.126329 m 0,0 0.0058,0.0058 m 0,0 H 31.075 m 0,0 v 1.278978 m 0,0 h -0.05001 m 0,0 v -1.278978 m 0,0 h -0.697931 m 0,0 -0.1409,0.03775 m 0,0 -0.126329,0.07294 m 0,0 -0.103146,0.103147 m 0,0 -0.07294,0.126328 m 0,0 -0.03775,0.1409 m 0,0 -3e-6,0.797934 m 0,0 h 1.178981 m 0,0 v 0.05001 m 0,0 H 29.846 m 0,0 v 0.674997 m 0,0 h -0.1635 m 0,0 -0.845347,0.350153 m 0,0 -0.647,0.647 m 0,0 -0.350153,0.845347 m 0,0 v 21.373431 m 0,0 -0.04,0.09657 m 0,0 v 0.914997 m 0,0 0.350153,0.845347 m 0,0 0.484141,0.484137 m 0,0 0.02846,0.068707 m 0,0 0.476909,0.476909 m 0,0 0.623113,0.2581 m 0,0 h 0.382347 m 0,0 2.923303,2.923303 m 0,0 h -11.39906 m 0,0 -2.053369,-2.053369 m 0,0 v -42.661265 m 0,0 2.053369,-2.053369 m 0,0 h 36.661265 m 0,0 2.053369,2.053369 m 0,0 v 42.661265 m 0,0 -2.053369,2.053369 m 0,0 H 43.5735 m 0,0 2.923303,-2.923303 m 0,0 h 0.340422 m 0,0 0.623113,-0.2581 m 0,0 0.476909,-0.476909 m 0,0 0.2581,-0.623113 m 0,0 v -0.482347 m 0,0 1.609303,-1.609303 m 0,0 v 0.248385 m 0,0 -0.10465,0.252646 m 0,0 v 0.716085 m 0,0 0.10465,0.252647 m 0,0 v 0.621887 m 0,0 0.2581,0.623113 m 0,0 0.476909,0.476909 m 0,0 0.623113,0.2581 m 0,0 h 0.674453 m 0,0 0.623113,-0.2581 m 0,0 0.476909,-0.476909 m 0,0 0.02307,-0.055691 m 0,0 h 2.427728 m 0,0 0.312821,-0.129575 m 0,0 -8.62e-4,0.00208 m 0,0 V -8.5425 m 0,0 0.350153,0.845347 m 0,0 0.647,0.647 m 0,0 L 57.5425,-6.7 m 0,0 h 0.914997 m 0,0 0.845347,-0.350153 m 0,0 0.647,-0.647 m 0,0 0.350153,-0.845347 m 0,0 v -0.914997 m 0,0 -0.350153,-0.845347 m 0,0 -0.647,-0.647 m 0,0 -0.845347,-0.350153 m 0,0 h -0.711922 m 0,0 2.080388,-2.080384 m 0,0 0.274034,-0.661575 m 0,0 v -12.696085 m 0,0 -0.274034,-0.661575 m 0,0 -0.506347,-0.506347 m 0,0 -2.024619,-2.024618 m 0,0 v -1.268547 m 0,0 -0.121794,-0.294035 m 0,0 -0.22504,-0.22504 m 0,0 -0.294035,-0.121794 m 0,0 h -3.108259 m 0,0 -0.294035,0.121794 m 0,0 -0.22504,0.22504 m 0,0 -0.121794,0.294035 m 0,0 v 3.238259 m 0,0 0.121794,0.294035 m 0,0 0.22504,0.22504 m 0,0 0.294035,0.121794 M 24.299997,-47.5425 v -0.914997 m 0,0 -0.350153,-0.845347 m 0,0 -0.647,-0.647 m 0,0 -0.845347,-0.350153 m 0,0 H 21.5425 m 0,0 -0.845347,0.350153 m 0,0 -0.647,0.647 m 0,0 L 19.7,-48.457497 m 0,0 v 0.914997 m 0,0 0.350153,0.845347 m 0,0 0.647,0.647 m 0,0 L 21.5425,-45.7 m 0,0 h 0.914997 m 0,0 0.845347,-0.350153 m 0,0 0.647,-0.647 m 0,0 0.350153,-0.845347 m 36,0 v -0.914997 m 0,0 -0.350153,-0.845347 m 0,0 -0.647,-0.647 m 0,0 -0.845347,-0.350153 m 0,0 H 57.5425 m 0,0 -0.845347,0.350153 m 0,0 -0.647,0.647 m 0,0 L 55.7,-48.457497 m 0,0 v 0.914997 m 0,0 0.350153,0.845347 m 0,0 0.647,0.647 m 0,0 L 57.5425,-45.7 m 0,0 h 0.914997 m 0,0 0.845347,-0.350153 m 0,0 0.647,-0.647 m 0,0 0.350153,-0.845347 m -35.239984,13.118506 v 1.823963 m 0,0 h -3.2e-5 m 0,0 v -1.823966 m 0,0 h -0.755506 m 0,0 -1.068475,1.068475 m 0,0 -3e-6,0.75551 m 0,0 h 1.823969 m 0,0 v 3.1e-5 m 0,0 H 23.236 m 0,0 v 0.755506 m 0,0 1.068475,1.068475 m 0,0 h 0.755506 m 0,0 v -1.823966 m 0,0 h 3.2e-5 m 0,0 V -30.776 m 0,0 h 0.755509 m 0,0 1.068475,-1.068475 m 0,0 v -0.755506 m 0,0 h -1.823966 m 0,0 v -3.1e-5 m 0,0 h 1.823966 m 0,0 v -0.75551 m 0,0 -1.068475,-1.068475 m 0,0 -0.755509,3e-6 m 0,10.523 v 1.823963 m 0,0 h -3.2e-5 m 0,0 v -1.823966 m 0,0 h -0.755506 m 0,0 -1.068475,1.068475 m 0,0 -3e-6,0.755509 m 0,0 h 1.823969 m 0,0 v 3.2e-5 m 0,0 H 23.236 m 0,0 v 0.755506 m 0,0 1.068475,1.068475 m 0,0 h 0.755506 m 0,0 v -1.823966 m 0,0 h 3.2e-5 m 0,0 V -20.253 m 0,0 h 0.755509 m 0,0 1.068475,-1.068475 m 0,0 v -0.755506 m 0,0 h -1.823966 m 0,0 v -3.2e-5 m 0,0 h 1.823966 m 0,0 v -0.755509 m 0,0 -1.068475,-1.068475 m 0,0 -0.755509,3e-6 m 0.154053,10.426297 h -0.114053 m 0,0 v 2.344666 m 0,0 h -3.2e-5 m 0,0 v -2.344666 m 0,0 h -0.11405 m 0,0 -0.225325,0.03569 m 0,0 -0.216965,0.0705 m 0,0 -0.203266,0.103569 m 0,0 -0.184566,0.134094 m 0,0 -0.161312,0.161312 m 0,0 -0.134094,0.184566 m 0,0 -0.103569,0.203266 m 0,0 -0.0705,0.216965 m 0,0 -0.03569,0.225325 m 0,0 -3e-6,1.009403 m 0,0 h 1.449319 m 0,0 v 3.2e-5 m 0,0 h -1.44931 m 0,0 v 1.0094 m 0,0 0.03569,0.225325 m 0,0 0.0705,0.216965 m 0,0 0.103569,0.203266 m 0,0 0.134094,0.184566 m 0,0 0.161312,0.161312 m 0,0 0.184566,0.134094 m 0,0 0.203266,0.103569 m 0,0 0.216965,0.070496 m 0,0 0.225325,0.035688 m 0,0 0.11405,3e-6 m 0,0 v -2.344669 m 0,0 h 3.2e-5 m 0,0 v 2.344669 m 0,0 0.114053,-3e-6 m 0,0 0.225325,-0.035688 m 0,0 0.216965,-0.070496 m 0,0 0.203266,-0.103569 m 0,0 0.184565,-0.134094 m 0,0 0.161313,-0.161312 m 0,0 0.134094,-0.184566 m 0,0 0.103568,-0.203266 m 0,0 0.0705,-0.216965 m 0,0 0.03569,-0.225325 m 0,0 v -1.0094 m 0,0 h -1.449316 m 0,0 v -3.2e-5 m 0,0 h 1.449316 m 0,0 v -1.009403 m 0,0 -0.03569,-0.225325 m 0,0 -0.0705,-0.216965 m 0,0 -0.103568,-0.203266 m 0,0 -0.134094,-0.184566 m 0,0 -0.161313,-0.161312 m 0,0 -0.184565,-0.134094 m 0,0 -0.203266,-0.103569 m 0,0 -0.216965,-0.0705 m 0,0 -0.225325,-0.03569 M 42.3,-16.140869 l 0.121794,0.294035 m 0,0 0.22504,0.22504 m 0,0 0.294035,0.121794 m 0,0 h 5.283553 m 0,0 -1.779303,1.779303 m 0,0 h -0.282347 m 0,0 -0.623113,0.2581 m 0,0 -0.476909,0.476909 m 0,0 -0.2581,0.623113 m 0,0 v 0.424272 m 0,0 -2.854653,2.854653 m 0,0 v -4.785425 m 0,0 -0.129403,-0.312409 m 0,0 -0.23911,-0.23911 m 0,0 -0.312409,-0.129403 m 0,0 h -5.938153 m 0,0 -0.31241,0.129403 m 0,0 -0.239109,0.23911 m 0,0 -0.129403,0.312409 m 0,0 v 4.7435 m 0,0 -2.210003,-2.210003 m 0,0 v -11.344366 m 0,0 L 32.960056,-23.2 m 0,0 H 33.246 m 0,0 -3e-6,0.75 m 0,0 h 2.003981 m 0,0 v 0.300006 m 0,0 H 33.246 m 0,0 v 0.401913 m 0,0 -0.0666,0.0666 m 0,0 -0.129403,0.312409 m 0,0 v 3.489237 m 0,0 -0.05,0.12071 m 0,0 v 2.118259 m 0,0 0.121794,0.294035 m 0,0 0.22504,0.22504 m 0,0 L 33.640869,-15 m 0,0 h 3.518259 m 0,0 0.294035,-0.121794 m 0,0 0.22504,-0.22504 m 0,0 0.02202,-0.05317 m 0,0 h 1.438359 m 0,0 0.04828,-0.02 m 0,0 h 0.672259 m 0,0 0.294035,-0.121794 m 0,0 0.22504,-0.22504 m 0,0 0.121794,-0.294035 m 0,0 v -0.703497 m 0,0 1.5231,-1.5231 m 0,0 0.27691,-0.276902 m 0,0 v 2.423503 m 8.2,-8.214762 -0.855634,0.855634 m 0,0 h -4.486772 m 0,0 0.378312,-0.378309 m 0,0 h 2.541313 m 0,0 0.36754,-0.152241 m 0,0 0.281304,-0.281303 m 0,0 1.321693,-1.321694 m 0,0 0.152241,-0.36754 m 0,0 v -1.997829 m 0,0 -0.152241,-0.36754 m 0,0 -1.181303,-1.181303 m 0,0 -0.36754,-0.152241 m 0,0 h -0.948916 m 0,0 v -1.359131 m 0,0 L 47.491644,-31.2 m 0,0 0.05835,-0.140869 m 0,0 v -1.618259 m 0,0 -0.121794,-0.294035 m 0,0 -0.22504,-0.22504 m 0,0 -0.01694,-0.007 m 0,0 0.167978,-0.167978 m 0,0 0.08504,-0.205312 m 0,0 0.0052,0.01024 m 0,0 0.121753,0.167585 m 0,0 0.146472,0.146472 m 0,0 0.167585,0.121753 m 0,0 0.184562,0.09404 m 0,0 0.197006,0.06401 m 0,0 0.204591,0.0324 m 0,0 h 0.103556 m 0,0 v -2.077966 m 0,0 h 3.2e-5 m 0,0 V -33.222 m 0,0 h 0.103559 m 0,0 0.204591,-0.0324 m 0,0 0.197006,-0.06401 m 0,0 0.184562,-0.09404 m 0,0 0.167585,-0.121753 m 0,0 0.146472,-0.146472 m 0,0 0.121753,-0.167585 m 0,0 0.09404,-0.184562 m 0,0 0.06401,-0.197006 m 0,0 0.0324,-0.204591 m 0,0 -3e-6,-0.865556 m 0,0 h -1.315963 m 0,0 v -3.2e-5 m 0,0 h 1.315966 m 0,0 v -0.865559 m 0,0 -0.0324,-0.20459 m 0,0 -0.06401,-0.197007 m 0,0 -0.09404,-0.184562 m 0,0 -0.121753,-0.167585 m 0,0 -0.146472,-0.146471 m 0,0 -0.167585,-0.121754 m 0,0 -0.184562,-0.09404 m 0,0 -0.197006,-0.06401 m 0,0 -0.204591,-0.0324 m 0,0 -0.103559,3e-6 m 0,0 v 2.077963 m 0,0 h -3.2e-5 m 0,0 v -2.077966 m 0,0 h -0.103556 m 0,0 -0.204591,0.0324 m 0,0 -0.197006,0.06401 m 0,0 -0.184562,0.09404 m 0,0 -0.167585,0.121754 m 0,0 -0.146472,0.146471 m 0,0 -0.121753,0.167585 m 0,0 -0.0052,0.01024 m 0,0 -0.08504,-0.205312 m 0,0 -0.439397,-0.439397 m 0,0 -0.5741,-0.2378 m 0,0 h -0.621403 m 0,0 -0.2193,0.09084 m 0,0 V -37.835 m 0,0 h 4.209369 m 0,0 0.790634,0.790634 m 0,0 v 12.688735 m -13.754,-6.166432 0.03775,0.1409 m 0,0 0.07293,0.126329 m 0,0 0.103147,0.103146 m 0,0 0.126329,0.07294 m 0,0 0.1409,0.03775 m 0,0 h 1.172918 m 0,0 v -0.853966 m 0,0 h 3.2e-5 m 0,0 V -30.041 m 0,0 h 0.450828 m 0,0 -0.0048,0.01807 m 0,0 -3e-6,0.797934 m 0,0 h 1.178981 m 0,0 v 0.05001 m 0,0 H 38.846 m 0,0 v 0.797931 m 0,0 0.03775,0.1409 m 0,0 0.07294,0.126329 m 0,0 0.103146,0.103146 m 0,0 0.126329,0.07294 m 0,0 0.1409,0.03775 m 0,0 h 0.393978 m 0,0 -0.269841,0.269837 m 0,0 -0.03796,0.09166 m 0,0 -0.05133,-0.07065 m 0,0 -0.154953,-0.154953 m 0,0 -0.177287,-0.128803 m 0,0 -0.19525,-0.09949 m 0,0 -0.208413,-0.06772 m 0,0 -0.216437,-0.03428 m 0,0 -0.109556,3e-6 m 0,0 v 2.230363 m 0,0 h -3.2e-5 m 0,0 v -2.230366 m 0,0 h -0.109553 m 0,0 -0.216437,0.03428 m 0,0 -0.208413,0.06772 m 0,0 -0.19525,0.09949 m 0,0 -0.177287,0.128803 m 0,0 -0.154954,0.154953 m 0,0 -0.05133,0.07065 m 0,0 -0.03796,-0.09166 m 0,0 -0.460834,-0.460834 m 0,0 -0.602107,-0.2494 m 0,0 h -0.651715 m 0,0 -0.602107,0.2494 m 0,0 -0.333,0.333 m 0,0 H 33.725 m 0,0 v 1.178978 m 0,0 h -0.05001 m 0,0 v -1.178978 m 0,0 h -0.797931 m 0,0 -0.140901,0.03775 m 0,0 -0.126328,0.07294 m 0,0 -0.103147,0.103146 m 0,0 -0.06669,0.115519 m 0,0 V -29.896 m 0,0 h 0.484997 m 0,0 v -1.278978 m 0,0 H 32.975 m 0,0 V -29.896 m 0,0 h 0.647628 m 0,0 0.124206,0.124206 m 0,0 0.294035,0.121794 m 0,0 h 1.618259 m 0,0 0.294035,-0.121794 m 0,0 0.22504,-0.22504 m 0,0 0.07424,-0.179235 m 0,0 0.220653,-0.0914 m 0,0 0.272903,-0.272906 m 0,0 v 0.01831 m 1.194869,7.942066 -0.294035,0.121794 m 0,0 -0.22504,0.22504 m 0,0 -0.03445,0.08317 m 0,0 h -1.837328 m 0,0 V -22.45 m 0,0 h 2.003978 m 0,0 v -0.822934 m 0,0 -0.03775,-0.1409 m 0,0 -0.07294,-0.126329 m 0,0 -0.103146,-0.103146 m 0,0 -0.126329,-0.07294 m 0,0 -0.1409,-0.03775 m 0,0 H 36.80895 m 0,0 0.339841,-0.339837 m 0,0 0.03796,-0.09166 m 0,0 0.05133,0.07065 m 0,0 0.154954,0.154953 m 0,0 0.177287,0.128804 m 0,0 0.19525,0.09949 m 0,0 0.208413,0.06772 m 0,0 0.216437,0.03428 m 0,0 h 0.109553 m 0,0 v -2.230366 m 0,0 h 3.2e-5 m 0,0 v 2.230366 m 0,0 h 0.109556 m 0,0 0.216437,-0.03428 m 0,0 0.208413,-0.06772 m 0,0 0.19525,-0.09949 m 0,0 0.177287,-0.128804 m 0,0 0.154953,-0.154953 m 0,0 0.05133,-0.07065 m 0,0 0.03796,0.09166 m 0,0 0.424213,0.424212 m 0,0 -1.089629,1.089625 m 0,0 H 37.940869 M 48.2,-26.614213 l -0.735909,0.73591 m 0,0 h -1.352316 m 0,0 0.08153,-0.08153 m 0,0 0.07294,-0.126329 m 0,0 0.03775,-0.1409 m 0,0 -3e-6,-0.472918 m 0,0 h -0.403997 m 0,0 v -3.1e-5 m 0,0 h 0.404 m 0,0 v -0.472922 m 0,0 -0.03164,-0.118063 m 0,0 0.155841,-0.155837 m 0,0 0.10487,-0.253167 m 0,0 h 1.352718 m 0,0 0.314216,0.314216 m 0,0 v 0.771571 M 21.285363,-6 h 11.399056 m 11.273084,0 H 58.714634 M 20.685363,-6.6 h 11.399056 m 12.473084,0 H 59.314634 M 20.085363,-7.2 h 11.399056 m 13.673084,0 h 11.389803 m 2.905385,0 h 0.461943 M 19.615997,-7.8 h 11.268422 m 14.873084,0 H 56.00755 m 3.984894,0 H 60.384 M 19.615997,-8.4 h 10.668422 m 16.073084,0 h 9.401522 m 4.481944,0 H 60.384 M 19.615997,-9 h 4.717569 m 0.766415,0 h 3.2e-5 m 0.766415,0 h 3.070631 m 18.725879,0 h 2.674121 m 2.325879,0 H 55.7 m 4.599997,0 h 0.084 m -40.768,-0.6 h 4.180728 m 1.303256,0 h 3.2e-5 m 1.303256,0 h 1.974037 m 5.798269,0 H 34.65 m 7.299997,0 h 0.51635 m 5.605803,0 h 1.855694 m 10.313128,0 H 60.384 m -40.768003,-0.6 h 4.034653 m 1.449331,0 h 3.2e-5 m 1.449334,0 h 1.446365 m 5.579863,0 H 34.65 m 7.299997,0 h 1.11635 m 5.129,0 h 1.609303 m 10.187794,0 H 60.384 m -40.768003,-0.6 h 4.034653 m 1.449331,0 h 3.2e-5 m 1.449334,0 H 27.8 m 5.175575,0 H 34.65 m 7.299997,0 h 1.71635 m 4.949231,0 H 49.7 m 9.752688,0 H 60.384 m -40.768003,-0.6 h 4.034653 m 1.449331,0 h 3.2e-5 m 1.449334,0 H 27.8 m 4.639997,0 H 34.65 m 7.299997,0 h 2.31635 m 4.949231,0 H 49.7 m 8.145578,0 H 60.384 M 19.615997,-12 h 4.034653 m 1.449331,0 h 3.2e-5 m 1.449334,0 H 27.84 m 4.599997,0 H 34.65 m 7.299997,0 h 2.854653 m 13.640928,0 H 60.384 m -40.768003,-0.6 h 4.150159 m 1.333825,0 h 3.2e-5 m 1.333831,0 H 27.84 m 4.599997,0 H 34.65 m 7.299997,0 h 2.953 m 14.142581,0 H 60.384 m -40.768003,-0.6 h 4.634991 m 0.848993,0 h 3.2e-5 m 0.849,0 H 27.84 m 4.599997,0 H 34.65 m 7.299997,0 h 3.327065 m 14.368516,0 H 60.384 M 19.615997,-13.8 H 27.84 m 4.599997,0 H 34.65 m 7.299997,0 h 4.574425 m 13.47535,0 H 60.384 M 19.615997,-14.4 H 27.84 m 4.599997,0 h 2.557922 m 6.604159,0 h 5.522344 m 12.975575,0 H 60.384 M 19.615997,-15 H 27.84 m 4.599997,0 h 1.200872 m 3.518259,0 h 10.565294 m 12.375575,0 H 60.384 M 19.615997,-15.6 H 27.84 m 4.599997,0 h 0.576931 m 7.194441,0 h 2.488078 m 17.40055,0 H 60.384 M 19.615997,-16.2 H 27.84 m 4.599997,0 H 33 m 7.499997,0 H 42.3 m 17.799997,0 H 60.384 M 19.615997,-16.8 H 27.84 m 4.599997,0 H 33 m 7.535631,0 H 42.3 m 17.799997,0 H 60.384 M 19.615997,-17.4 H 27.84 m 4.599997,0 H 33 m 8.135631,0 H 42.3 m 17.799997,0 H 60.384 M 19.615997,-18 H 27.84 m 4.599997,0 H 33.05 m 8.685631,0 H 42.3 m 17.799997,0 H 60.384 M 19.615997,-18.6 H 27.84 m 4.599997,0 H 33.05 m 27.049997,0 H 60.384 M 19.615997,-19.2 H 27.84 m 4.599997,0 H 33.05 m 27.049997,0 H 60.384 M 19.615997,-19.8 H 27.84 m 4.599997,0 H 33.05 m 27.049997,0 H 60.384 m -40.768003,-0.6 h 4.541478 m 0.902506,0 h 3.2e-5 m 0.902509,0 H 27.84 m 4.599997,0 H 33.05 m 27.049997,0 H 60.384 M 19.615997,-21 h 3.941478 m 1.502506,0 h 3.2e-5 m 1.502509,0 H 27.84 m 4.599997,0 H 33.05 m 17.049997,0 h 2.993634 m 7.006366,0 H 60.384 M 19.615997,-21.6 H 23.236 m 1.823981,0 h 3.2e-5 m 1.823984,0 H 27.84 m 4.599997,0 h 0.705656 m 17.709978,0 H 56.5 m 3.599997,0 H 60.384 M 19.615997,-22.2 H 23.236 m 1.823981,0 h 3.2e-5 m 1.823984,0 H 27.84 m 4.599997,0 h 2.809981 m 0.300041,0 h 1.85804 m 14.047572,0 H 56.5 m 3.599997,0 H 60.384 M 19.615997,-22.8 H 23.236 m 1.823981,0 h 3.2e-5 m 1.823984,0 H 27.84 m 4.720053,0 H 33.246 m 4.307997,0 h 1.451794 m 13.04984,0 H 56.5 m 3.599997,0 H 60.384 m -40.768003,-0.6 h 4.187481 m 1.256503,0 h 3.2e-5 m 1.256506,0 H 27.84 m 9.679953,0 h 2.085838 m 12.977728,0 H 56.5 m 3.599997,0 H 60.384 M 19.615997,-24 H 27.84 m 9.214959,0 h 0.297969 m 0.947053,0 h 3.2e-5 m 0.947056,0 h 0.297965 m 8.825978,0 h 1.773357 m 2.555628,0 H 56.5 m 3.599997,0 H 60.384 M 19.615997,-24.6 H 27.84 m 10.459981,0 h 3.2e-5 m 10.714199,0 H 50.5 m 2.199997,0 H 56.5 m 3.599997,0 H 60.384 M 19.615997,-25.2 H 27.84 m 10.459981,0 h 3.2e-5 m 11.3142,0 H 50.5 m 2.199997,0 H 56.5 m 3.599997,0 H 60.384 M 19.615997,-25.8 H 27.84 m 10.459981,0 h 3.2e-5 m 11.81669,0 H 50.5 m 2.199997,0 h 3.634419 m 3.765581,0 H 60.384 M 19.615997,-26.4 H 27.84 m 10.459981,0 h 3.2e-5 m 8.003984,0 h 1.681791 m 2.214209,0 H 50.5 m 2.199997,0 h 3.034419 m 4.365581,0 H 60.384 M 19.615997,-27 H 27.84 m 5.834994,0 H 33.725 m 4.574981,0 h 3.2e-5 m 8.003984,0 H 48.2 m 1.999997,0 H 50.5 m 2.199997,0 h 2.434419 m 4.857075,0 H 60.384 M 19.615997,-27.6 H 27.84 m 4.599997,0 h 0.126528 m 1.108469,0 H 33.725 m 3.434634,0 h 0.07471 m 1.065637,0 h 3.2e-5 m 1.065643,0 h 0.07471 m 7.051278,0 h 1.49414 m 2.214213,0 H 50.5 m 2.199997,0 h 0.393631 m 6.53195,0 H 60.384 M 19.615997,-28.2 H 27.84 m 4.599997,0 h 2.664853 m 1.3103,0 h 2.489478 m 11.212078,0 H 50.5 m 2.199997,0 H 52.905 m 6.120578,0 H 60.384 M 19.615997,-28.8 H 27.84 m 4.599997,0 H 38.846 m 10.768209,0 H 50.5 m 2.199997,0 H 52.905 m 5.520578,0 H 60.384 M 19.615997,-29.4 H 27.84 m 4.599997,0 H 38.846 m 10.168209,0 H 50.5 m 2.199997,0 H 52.905 m 4.920578,0 H 60.384 M 19.615997,-30 H 27.84 m 5.084994,0 H 32.975 m 3.204513,0 H 38.846 m 8.703997,0 H 50.5 m 2.199997,0 H 52.905 m 4.389997,0 H 60.384 M 19.615997,-30.6 H 27.84 m 5.084994,0 H 32.975 m 5.424981,0 h 3.2e-5 m 9.149984,0 H 50.5 m 2.199997,0 H 52.905 m 4.389997,0 H 60.384 m -40.768003,-0.6 h 4.264478 m 1.179506,0 h 3.2e-5 m 1.179509,0 H 27.84 m 19.651644,0 H 50.5 m 2.199997,0 h 0.205366 m 4.389275,0 H 60.384 m -40.768003,-0.6 h 3.664478 m 1.779506,0 h 3.2e-5 m 1.779509,0 H 27.84 m 19.709997,0 H 50.5 m 2.199997,0 h 0.749312 m 3.301382,0 H 60.384 M 19.615997,-32.4 H 23.236 m 1.823981,0 h 3.2e-5 m 1.823984,0 H 27.84 m 19.709997,0 H 50.5 m 2.199997,0 H 60.384 M 19.615997,-33 H 23.236 m 1.823981,0 h 3.2e-5 m 1.823984,0 H 27.84 m 19.693069,0 H 50.5 m 2.199997,0 H 60.384 m -40.768003,-0.6 h 3.864481 m 1.579503,0 h 3.2e-5 m 1.579506,0 h 1.425194 m 19.236287,0 h 0.345891 m 0.92309,0 h 3.2e-5 m 0.923093,0 H 50.5 m 2.199997,0 H 60.384 m -40.768003,-0.6 h 4.464481 m 0.979503,0 h 3.2e-5 m 0.979506,0 h 2.44779 m 20.082672,0 h 3.2e-5 m 1.273884,0 H 50.5 m 2.199997,0 H 60.384 m -40.768003,-0.6 h 9.825091 m 19.128893,0 h 3.2e-5 m 1.315984,0 H 50.5 m 2.199997,0 H 60.384 M 19.615997,-35.4 H 29.846 m 18.723981,0 h 3.2e-5 m 1.315984,0 H 50.5 m 2.199997,0 H 60.384 M 19.615997,-36 H 29.846 m 1.178994,0 H 31.075 m 17.494981,0 h 3.2e-5 m 1.315984,0 H 50.5 m 2.199997,0 H 60.384 m -40.768003,-0.6 h 10.288637 m 1.12036,0 H 31.075 m 17.494981,0 h 3.2e-5 m 1.20284,0 H 50.5 m 2.199997,0 H 60.384 M 19.615997,-37.2 H 31.146 m 15.954997,0 h 0.803722 m 0.665262,0 h 3.2e-5 m 0.665268,0 h 1.109085 m 2.355631,0 H 60.384 M 19.615997,-37.8 H 31.146 m 14.353997,0 h 4.244369 m 2.922,0 H 60.384 M 19.615997,-38.4 H 31.146 m 21.109628,0 H 60.384 M 19.615997,-39 h 11.404484 m 20.635147,0 H 60.384 M 19.615997,-39.6 H 30.9 m 20.155628,0 H 60.384 M 19.615997,-40.2 H 30.9 m 14.353997,0 H 60.384 M 19.615997,-40.8 H 30.9 m 14.633475,0 H 60.384 m -40.768003,-0.6 h 11.404487 m 14.633513,0 H 60.384 M 19.615997,-42 h 12.228372 m 12.580625,0 H 44.475 m 1.178997,0 H 60.384 m -40.768003,-0.6 h 12.828372 m 11.980625,0 H 44.475 m 1.178997,0 H 60.384 m -40.768003,-0.6 h 15.996928 m 8.812069,0 H 44.475 m 0.712853,0 H 60.384 m -40.768003,-0.6 h 16.378372 m 8.505403,0 H 60.384 m -40.768003,-0.6 h 16.978375 m 3.630622,0 H 40.275 m 4.324997,0 H 60.384 M 19.615997,-45 H 36.9 m 3.324994,0 H 40.275 m 4.224775,0 H 60.384 m -40.768003,-0.6 h 15.184537 m 1.198925,0 h 1.42071 m 1.859662,0 H 41.44 m 2.705578,0 H 60.384 m -40.768003,-0.6 h 0.931309 m 2.905385,0 h 10.501725 m 6.301215,0 H 41.44 m 2.199997,0 h 12.907309 m 2.905385,0 H 60.384 m -40.768003,-0.6 h 0.391553 m 3.984894,0 H 33.6588 m 7.196831,0 H 41.44 m 2.199997,0 H 56.00755 m 3.984894,0 H 60.384 m -40.768003,-0.6 h 0.143028 m 4.481944,0 H 33.6 m 10.283581,0 h 11.875444 m 4.481944,0 H 60.384 M 19.615997,-48 H 19.7 m 4.599997,0 h 9.44165 m 10.36035,0 H 55.7 m 4.599997,0 h 0.084 m -40.768003,-0.6 h 0.143031 m 4.481944,0 h 9.913447 m 9.947578,0 h 11.657031 m 4.481944,0 H 60.384 m -40.768003,-0.6 h 0.391559 m 3.984888,0 H 36.144 m 1.315981,0 h 3.2e-5 m 6.641984,0 h 11.905559 m 3.984888,0 H 60.384 m -40.768003,-0.6 h 0.931312 m 2.905378,0 H 36.144 m 1.315981,0 h 3.2e-5 m 6.641984,0 h 12.445312 m 2.905379,0 H 60.384 M 19.685366,-50.4 H 36.3081 m 1.151881,0 h 3.2e-5 m 6.506412,0 H 60.314631 M 20.285366,-51 h 16.72615 m 0.448465,0 h 3.2e-5 m 0.448471,0 H 39.029 m 1.941997,0 h 0.598006 m 1.941994,0 h 16.203634 m -38.829265,-0.6 h 38.229265 m -37.629265,-0.6 h 37.029265"
     id="path56" />
  <line
     class="l1"
     x1="45.549999"
     y1="-26.700001"
     x2="45.549999"
     y2="-26.5"
     style="stroke-width:0.4;stroke-linecap:round"
     id="line58" />
  <line
     class="l1"
     x1="45.549999"
     y1="-26.700001"
     x2="46.799999"
     y2="-26.700001"
     style="stroke-width:0.4;stroke-linecap:round"
     id="line60" />
  <line
     class="l1"
     x1="46.799999"
     y1="-26.700001"
     x2="47.200001"
     y2="-27.1"
     style="stroke-width:0.4;stroke-linecap:round"
     id="line62" />
  <circle
     class="j1"
     cx="47.200001"
     cy="-27.1"
     r="1"
     id="circle64" />
  <circle
     class="j44"
     cx="47.200001"
     cy="-27.1"
     r="0.30000001"
     id="circle66" />
  <circle
     class="j1"
     cx="33.200001"
     cy="-29"
     r="1"
     id="circle68" />
  <circle
     class="j44"
     cx="33.200001"
     cy="-29"
     r="0.30000001"
     id="circle70" />
  <circle
     class="j1"
     cx="33.200001"
     cy="-43.599998"
     r="1"
     id="circle72" />
  <circle
     class="j44"
     cx="33.200001"
     cy="-43.599998"
     r="0.30000001"
     id="circle74" />
  <circle
     class="j1"
     cx="47.200001"
     cy="-40.799999"
     r="1"
     id="circle76" />
  <circle
     class="j44"
     cx="47.200001"
     cy="-40.799999"
     r="0.30000001"
     id="circle78" />
  <circle
     class="j1"
     cx="49.599998"
     cy="-40.799999"
     r="1"
     id="circle80" />
  <circle
     class="j44"
     cx="49.599998"
     cy="-40.799999"
     r="0.30000001"
     id="circle82" />
  <circle
     class="j1"
     cx="49.599998"
     cy="-31.799999"
     r="1"
     id="circle84" />
  <circle
     class="j44"
     cx="49.599998"
     cy="-31.799999"
     r="0.30000001"
     id="circle86" />
  <line
     class="l1"
     x1="44.25"
     y1="-26.700001"
     x2="44.25"
     y2="-25.75"
     style="stroke-width:0.4;stroke-linecap:round"
     id="line88" />
  <line
     class="l1"
     x1="45.121693"
     y1="-24.878305"
     x2="44.25"
     y2="-25.75"
     style="stroke-width:0.4;stroke-linecap:round"
     id="line90" />
  <line
     class="l1"
     x1="45.549999"
     y1="-28.299999"
     x2="45.950001"
     y2="-28.700001"
     style="stroke-width:0.4;stroke-linecap:round"
     id="line92" />
  <line
     class="l1"
     x1="49.200001"
     y1="-27.799999"
     x2="49.200001"
     y2="-26.200001"
     style="stroke-width:0.4;stroke-linecap:round"
     id="line94" />
  <line
     class="l1"
     x1="49.200001"
     y1="-26.200001"
     x2="47.878307"
     y2="-24.878305"
     style="stroke-width:0.4;stroke-linecap:round"
     id="line96" />
  <line
     class="l1"
     x1="47.878307"
     y1="-24.878305"
     x2="45.121693"
     y2="-24.878305"
     style="stroke-width:0.4;stroke-linecap:round"
     id="line98" />
  <line
     class="l1"
     x1="45.950001"
     y1="-28.700001"
     x2="48.299999"
     y2="-28.700001"
     style="stroke-width:0.4;stroke-linecap:round"
     id="line100" />
  <line
     class="l1"
     x1="48.299999"
     y1="-28.700001"
     x2="49.200001"
     y2="-27.799999"
     style="stroke-width:0.4;stroke-linecap:round"
     id="line102" />
  <line
     class="l1"
     x1="38.900002"
     y1="-21.280001"
     x2="41.220001"
     y2="-23.6"
     style="stroke-width:0.4;stroke-linecap:round"
     id="line104" />
  <line
     class="l1"
     x1="43.843388"
     y1="-23.6"
     x2="45.121693"
     y2="-24.878305"
     style="stroke-width:0.4;stroke-linecap:round"
     id="line106" />
  <line
     class="l1"
     x1="41.220001"
     y1="-23.6"
     x2="43.843388"
     y2="-23.6"
     style="stroke-width:0.4;stroke-linecap:round"
     id="line108" />
  <line
     class="l1"
     x1="46.200001"
     y1="-19"
     x2="55.080002"
     y2="-19"
     style="stroke-width:2;stroke-linecap:round"
     id="line110" />
  <line
     class="l1"
     x1="55.080002"
     y1="-19"
     x2="55.099998"
     y2="-19.02"
     style="stroke-width:2;stroke-linecap:round"
     id="line112" />
  <line
     class="l1"
     x1="54.950001"
     y1="-15.3"
     x2="55.080002"
     y2="-15.43"
     style="stroke-width:2;stroke-linecap:round"
     id="line114" />
  <line
     class="l1"
     x1="55.080002"
     y1="-15.43"
     x2="55.080002"
     y2="-19"
     style="stroke-width:2;stroke-linecap:round"
     id="line116" />
  <line
     class="l1"
     x1="44.900002"
     y1="-28.299999"
     x2="44.900002"
     y2="-29.15"
     style="stroke-width:0.4;stroke-linecap:round"
     id="line118" />
  <line
     class="l1"
     x1="44.900002"
     y1="-29.15"
     x2="46"
     y2="-30.25"
     style="stroke-width:0.4;stroke-linecap:round"
     id="line120" />
  <line
     class="l1"
     x1="44.900002"
     y1="-28.299999"
     x2="44.900002"
     y2="-26.700001"
     style="stroke-width:0.4;stroke-linecap:round"
     id="line122" />
  <line
     class="l1"
     x1="43.599998"
     y1="-32.165001"
     x2="45.985001"
     y2="-32.165001"
     style="stroke-width:0.6;stroke-linecap:round"
     id="line124" />
  <line
     class="l1"
     x1="45.985001"
     y1="-32.165001"
     x2="46"
     y2="-32.150002"
     style="stroke-width:0.6;stroke-linecap:round"
     id="line126" />
  <line
     class="l1"
     x1="35.400002"
     y1="-16.700001"
     x2="38.880001"
     y2="-16.700001"
     style="stroke-width:1;stroke-linecap:round"
     id="line128" />
  <line
     class="l1"
     x1="38.880001"
     y1="-16.700001"
     x2="38.900002"
     y2="-16.719999"
     style="stroke-width:1;stroke-linecap:round"
     id="line130" />
  <line
     class="l1"
     x1="38.900002"
     y1="-16.719999"
     x2="41.400002"
     y2="-19.219999"
     style="stroke-width:0.6;stroke-linecap:round"
     id="line132" />
  <line
     class="l1"
     x1="41.400002"
     y1="-19.219999"
     x2="41.400002"
     y2="-21.299999"
     style="stroke-width:0.6;stroke-linecap:round"
     id="line134" />
  <line
     class="l1"
     x1="41.400002"
     y1="-21.299999"
     x2="42.5"
     y2="-22.4"
     style="stroke-width:0.6;stroke-linecap:round"
     id="line136" />
  <line
     class="l1"
     x1="42.5"
     y1="-22.4"
     x2="50.099998"
     y2="-22.4"
     style="stroke-width:0.6;stroke-linecap:round"
     id="line138" />
  <line
     class="l1"
     x1="50.099998"
     y1="-22.4"
     x2="51.599998"
     y2="-23.9"
     style="stroke-width:0.6;stroke-linecap:round"
     id="line140" />
  <line
     class="l1"
     x1="51.599998"
     y1="-23.9"
     x2="51.599998"
     y2="-37.5"
     style="stroke-width:0.6;stroke-linecap:round"
     id="line142" />
  <line
     class="l1"
     x1="50.165001"
     y1="-38.935001"
     x2="43.599998"
     y2="-38.935001"
     style="stroke-width:0.6;stroke-linecap:round"
     id="line144" />
  <line
     class="l1"
     x1="51.599998"
     y1="-37.5"
     x2="50.165001"
     y2="-38.935001"
     style="stroke-width:0.6;stroke-linecap:round"
     id="line146" />
  <line
     class="l1"
     x1="38.349998"
     y1="-41.900002"
     x2="38.075001"
     y2="-41.625"
     style="stroke-width:0.4;stroke-linecap:round"
     id="line148" />
  <line
     class="l1"
     x1="43.599998"
     y1="-36.395"
     x2="42.904999"
     y2="-36.395"
     style="stroke-width:0.6;stroke-linecap:round"
     id="line150" />
  <line
     class="l1"
     x1="42.900002"
     y1="-36.400002"
     x2="42.904999"
     y2="-36.395"
     style="stroke-width:0.6;stroke-linecap:round"
     id="line152" />
  <line
     class="l1"
     x1="42.900002"
     y1="-36.400002"
     x2="42.200001"
     y2="-36.400002"
     style="stroke-width:0.6;stroke-linecap:round"
     id="line154" />
  <line
     class="l1"
     x1="42.200001"
     y1="-36.400002"
     x2="40.700001"
     y2="-37.900002"
     style="stroke-width:0.6;stroke-linecap:round"
     id="line156" />
  <line
     class="l1"
     x1="40.700001"
     y1="-37.900002"
     x2="40.700001"
     y2="-39.900002"
     style="stroke-width:0.6;stroke-linecap:round"
     id="line158" />
  <line
     class="l1"
     x1="40.700001"
     y1="-39.900002"
     x2="40.395"
     y2="-40.205002"
     style="stroke-width:0.6;stroke-linecap:round"
     id="line160" />
  <line
     class="l1"
     x1="40.395"
     y1="-40.205002"
     x2="38.400002"
     y2="-40.205002"
     style="stroke-width:0.6;stroke-linecap:round"
     id="line162" />
  <line
     class="l1"
     x1="38.349998"
     y1="-41.900002"
     x2="38.349998"
     y2="-40.255001"
     style="stroke-width:0.6;stroke-linecap:round"
     id="line164" />
  <line
     class="l1"
     x1="38.349998"
     y1="-40.255001"
     x2="38.400002"
     y2="-40.205002"
     style="stroke-width:0.6;stroke-linecap:round"
     id="line166" />
  <line
     class="l1"
     x1="43.599998"
     y1="-33.435001"
     x2="41.965"
     y2="-33.435001"
     style="stroke-width:0.6;stroke-linecap:round"
     id="line168" />
  <line
     class="l1"
     x1="41.5"
     y1="-33.900002"
     x2="41.5"
     y2="-35.700001"
     style="stroke-width:0.6;stroke-linecap:round"
     id="line170" />
  <line
     class="l1"
     x1="41.5"
     y1="-35.700001"
     x2="39.535"
     y2="-37.665001"
     style="stroke-width:0.6;stroke-linecap:round"
     id="line172" />
  <line
     class="l1"
     x1="39.535"
     y1="-37.665001"
     x2="38.400002"
     y2="-37.665001"
     style="stroke-width:0.6;stroke-linecap:round"
     id="line174" />
  <line
     class="l1"
     x1="41.965"
     y1="-33.435001"
     x2="41.5"
     y2="-33.900002"
     style="stroke-width:0.6;stroke-linecap:round"
     id="line176" />
  <line
     class="l1"
     x1="34.25"
     y1="-40.200001"
     x2="34.450001"
     y2="-40"
     style="stroke-width:0.6;stroke-linecap:round"
     id="line178" />
  <line
     class="l1"
     x1="35.349998"
     y1="-40"
     x2="34.450001"
     y2="-40"
     style="stroke-width:0.6;stroke-linecap:round"
     id="line180" />
  <line
     class="l1"
     x1="35.900002"
     y1="-39.450001"
     x2="35.349998"
     y2="-40"
     style="stroke-width:0.6;stroke-linecap:round"
     id="line182" />
  <line
     class="l1"
     x1="35.900002"
     y1="-39.450001"
     x2="35.900002"
     y2="-38.700001"
     style="stroke-width:0.6;stroke-linecap:round"
     id="line184" />
  <line
     class="l1"
     x1="35.900002"
     y1="-38.700001"
     x2="36.935001"
     y2="-37.665001"
     style="stroke-width:0.6;stroke-linecap:round"
     id="line186" />
  <line
     class="l1"
     x1="36.935001"
     y1="-37.665001"
     x2="38.400002"
     y2="-37.665001"
     style="stroke-width:0.6;stroke-linecap:round"
     id="line188" />
  <line
     class="l1"
     x1="38.400002"
     y1="-38.935001"
     x2="37.117401"
     y2="-38.935001"
     style="stroke-width:0.6;stroke-linecap:round"
     id="line190" />
  <line
     class="l1"
     x1="37.117401"
     y1="-38.935001"
     x2="36.700001"
     y2="-39.352402"
     style="stroke-width:0.6;stroke-linecap:round"
     id="line192" />
  <line
     class="l1"
     x1="37.849998"
     y1="-44.099998"
     x2="36.700001"
     y2="-42.950001"
     style="stroke-width:0.6;stroke-linecap:round"
     id="line194" />
  <line
     class="l1"
     x1="37.849998"
     y1="-44.099998"
     x2="38.349998"
     y2="-44.099998"
     style="stroke-width:0.6;stroke-linecap:round"
     id="line196" />
  <line
     class="l1"
     x1="36.700001"
     y1="-39.352402"
     x2="36.700001"
     y2="-41.900002"
     style="stroke-width:0.6;stroke-linecap:round"
     id="line198" />
  <line
     class="l1"
     x1="36.700001"
     y1="-41.900002"
     x2="36.700001"
     y2="-42.950001"
     style="stroke-width:0.6;stroke-linecap:round"
     id="line200" />
  <line
     class="l1"
     x1="32.349998"
     y1="-40.200001"
     x2="32.349998"
     y2="-40.950001"
     style="stroke-width:0.6;stroke-linecap:round"
     id="line202" />
  <line
     class="l1"
     x1="33.299999"
     y1="-41.900002"
     x2="36.700001"
     y2="-41.900002"
     style="stroke-width:0.6;stroke-linecap:round"
     id="line204" />
  <line
     class="l1"
     x1="32.349998"
     y1="-40.950001"
     x2="33.299999"
     y2="-41.900002"
     style="stroke-width:0.6;stroke-linecap:round"
     id="line206" />
  <line
     class="l1"
     x1="43.599998"
     y1="-37.665001"
     x2="42.199055"
     y2="-37.665001"
     style="stroke-width:0.6;stroke-linecap:round"
     id="line208" />
  <line
     class="l1"
     x1="41.849998"
     y1="-41.200001"
     x2="41.849998"
     y2="-38.014057"
     style="stroke-width:0.6;stroke-linecap:round"
     id="line210" />
  <line
     class="l1"
     x1="41.849998"
     y1="-41.200001"
     x2="42.549999"
     y2="-41.900002"
     style="stroke-width:0.6;stroke-linecap:round"
     id="line212" />
  <line
     class="l1"
     x1="42.199055"
     y1="-37.665001"
     x2="41.849998"
     y2="-38.014057"
     style="stroke-width:0.6;stroke-linecap:round"
     id="line214" />
  <line
     class="l1"
     x1="42.549999"
     y1="-41.900002"
     x2="40.25"
     y2="-41.900002"
     style="stroke-width:0.6;stroke-linecap:round"
     id="line216" />
  <line
     class="l1"
     x1="55.099998"
     y1="-29.58"
     x2="58.299999"
     y2="-26.379999"
     style="stroke-width:2;stroke-linecap:round"
     id="line218" />
  <line
     class="l1"
     x1="58.299999"
     y1="-26.379999"
     x2="58.299999"
     y2="-14.4"
     style="stroke-width:2;stroke-linecap:round"
     id="line220" />
  <line
     class="l1"
     x1="58.299999"
     y1="-14.4"
     x2="55.029999"
     y2="-11.13"
     style="stroke-width:2;stroke-linecap:round"
     id="line222" />
  <line
     class="l1"
     x1="55.029999"
     y1="-11.13"
     x2="51.5"
     y2="-11.13"
     style="stroke-width:2;stroke-linecap:round"
     id="line224" />
  <line
     class="l1"
     x1="38.400002"
     y1="-33.435001"
     x2="37.35479"
     y2="-33.435001"
     style="stroke-width:0.6;stroke-linecap:round"
     id="line226" />
  <line
     class="l1"
     x1="35.400002"
     y1="-35.38979"
     x2="35.400002"
     y2="-35.799999"
     style="stroke-width:0.6;stroke-linecap:round"
     id="line228" />
  <line
     class="l1"
     x1="37.35479"
     y1="-33.435001"
     x2="35.400002"
     y2="-35.38979"
     style="stroke-width:0.6;stroke-linecap:round"
     id="line230" />
  <line
     class="l1"
     x1="35.400002"
     y1="-47.299999"
     x2="35.799999"
     y2="-46.900002"
     style="stroke-width:0.6;stroke-linecap:round"
     id="line232" />
  <line
     class="l1"
     x1="35.799999"
     y1="-46.900002"
     x2="39.400002"
     y2="-46.900002"
     style="stroke-width:0.6;stroke-linecap:round"
     id="line234" />
  <line
     class="l1"
     x1="39.400002"
     y1="-46.900002"
     x2="40"
     y2="-47.5"
     style="stroke-width:0.6;stroke-linecap:round"
     id="line236" />
  <line
     class="l1"
     x1="40"
     y1="-47.5"
     x2="40"
     y2="-49"
     style="stroke-width:0.6;stroke-linecap:round"
     id="line238" />
  <circle
     class="j1"
     cx="35.400002"
     cy="-35.799999"
     r="1"
     id="circle240" />
  <circle
     class="j44"
     cx="35.400002"
     cy="-35.799999"
     r="0.30000001"
     id="circle242" />
  <circle
     class="j1"
     cx="35.400002"
     cy="-47.299999"
     r="1"
     id="circle244" />
  <circle
     class="j44"
     cx="35.400002"
     cy="-47.299999"
     r="0.30000001"
     id="circle246" />
  <circle
     class="j1"
     cx="58"
     cy="-48"
     r="1.5"
     id="circle248" />
  <circle
     class="j44"
     cx="58"
     cy="-48"
     r="0.30000001"
     id="circle250" />
  <line
     class="l1"
     x1="34.849998"
     y1="-33.400002"
     x2="34.849998"
     y2="-31.200001"
     style="stroke-width:0.6;stroke-linecap:round"
     id="line252" />
  <line
     class="l1"
     x1="34.849998"
     y1="-31.200001"
     x2="35.849998"
     y2="-31.200001"
     style="stroke-width:0.6;stroke-linecap:round"
     id="line254" />
  <line
     class="l1"
     x1="36.814999"
     y1="-32.165001"
     x2="35.849998"
     y2="-31.200001"
     style="stroke-width:0.6;stroke-linecap:round"
     id="line256" />
  <line
     class="l1"
     x1="36.814999"
     y1="-32.165001"
     x2="38.400002"
     y2="-32.165001"
     style="stroke-width:0.6;stroke-linecap:round"
     id="line258" />
  <line
     class="l1"
     x1="32.950001"
     y1="-35.599998"
     x2="32.950001"
     y2="-35.299999"
     style="stroke-width:0.6;stroke-linecap:round"
     id="line260" />
  <line
     class="l1"
     x1="32.950001"
     y1="-35.299999"
     x2="34.849998"
     y2="-33.400002"
     style="stroke-width:0.6;stroke-linecap:round"
     id="line262" />
  <line
     class="l1"
     x1="43.599998"
     y1="-34.705002"
     x2="45.435001"
     y2="-34.705002"
     style="stroke-width:0.6;stroke-linecap:round"
     id="line264" />
  <line
     class="l1"
     x1="45.435001"
     y1="-34.705002"
     x2="46.029999"
     y2="-35.299999"
     style="stroke-width:0.6;stroke-linecap:round"
     id="line266" />
  <circle
     class="j1"
     cx="22"
     cy="-48"
     r="1.5"
     id="circle268" />
  <circle
     class="j44"
     cx="22"
     cy="-48"
     r="0.30000001"
     id="circle270" />
  <circle
     class="j1"
     cx="58"
     cy="-9"
     r="1.5"
     id="circle272" />
  <circle
     class="j44"
     cx="58"
     cy="-9"
     r="0.30000001"
     id="circle274" />
  <line
     class="l1"
     x1="30.139999"
     y1="-32.599998"
     x2="30.139999"
     y2="-25.200001"
     style="stroke-width:3;stroke-linecap:round"
     id="line276" />
  <line
     class="l1"
     x1="30.139999"
     y1="-25.200001"
     x2="30.139999"
     y2="-22.077"
     style="stroke-width:3;stroke-linecap:round"
     id="line278" />
  <line
     class="l1"
     x1="30.139999"
     y1="-22.077"
     x2="30.139999"
     y2="-13.9"
     style="stroke-width:3;stroke-linecap:round"
     id="line280" />
  <line
     class="l1"
     x1="30.139999"
     y1="-13.9"
     x2="30.139999"
     y2="-11.17"
     style="stroke-width:3;stroke-linecap:round"
     id="line282" />
  <line
     class="l1"
     x1="30.139999"
     y1="-11.17"
     x2="30.1"
     y2="-11.13"
     style="stroke-width:3;stroke-linecap:round"
     id="line284" />
  <line
     class="l1"
     x1="30.139999"
     y1="-32.599998"
     x2="30.940001"
     y2="-33.400002"
     style="stroke-width:0.6;stroke-linecap:round"
     id="line286" />
  <line
     class="l1"
     x1="30.940001"
     y1="-33.400002"
     x2="32.950001"
     y2="-33.400002"
     style="stroke-width:0.6;stroke-linecap:round"
     id="line288" />
  <line
     class="l1"
     x1="30.440001"
     y1="-14.2"
     x2="30.139999"
     y2="-13.9"
     style="stroke-width:1;stroke-linecap:round"
     id="line290" />
  <line
     class="l1"
     x1="46.5"
     y1="-11.13"
     x2="46.5"
     y2="-11.23"
     style="stroke-width:2;stroke-linecap:round"
     id="line292" />
  <line
     class="l1"
     x1="50.57"
     y1="-15.3"
     x2="46.5"
     y2="-11.23"
     style="stroke-width:2;stroke-linecap:round"
     id="line294" />
  <line
     class="l1"
     x1="50.57"
     y1="-15.3"
     x2="50.849998"
     y2="-15.3"
     style="stroke-width:2;stroke-linecap:round"
     id="line296" />
  <line
     class="l1"
     x1="34.623001"
     y1="-6.6069999"
     x2="42.018925"
     y2="-6.6069999"
     style="stroke-width:2;stroke-linecap:round"
     id="line298" />
  <line
     class="l1"
     x1="30.1"
     y1="-11.13"
     x2="34.623001"
     y2="-6.6069999"
     style="stroke-width:2;stroke-linecap:round"
     id="line300" />
  <line
     class="l1"
     x1="46.5"
     y1="-11.13"
     x2="46.5"
     y2="-11.088075"
     style="stroke-width:2;stroke-linecap:round"
     id="line302" />
  <line
     class="l1"
     x1="46.5"
     y1="-11.088075"
     x2="42.018925"
     y2="-6.6069999"
     style="stroke-width:2;stroke-linecap:round"
     id="line304" />
  <line
     class="l1"
     x1="30.790001"
     y1="-25.85"
     x2="30.139999"
     y2="-25.200001"
     style="stroke-width:0.8;stroke-linecap:round"
     id="line306" />
  <line
     class="l1"
     x1="33.700001"
     y1="-24.65"
     x2="35.150002"
     y2="-24.65"
     style="stroke-width:0.8;stroke-linecap:round"
     id="line308" />
  <line
     class="l1"
     x1="35.759998"
     y1="-25.26"
     x2="35.759998"
     y2="-25.860001"
     style="stroke-width:0.8;stroke-linecap:round"
     id="line310" />
  <line
     class="l1"
     x1="35.150002"
     y1="-24.65"
     x2="35.759998"
     y2="-25.26"
     style="stroke-width:0.8;stroke-linecap:round"
     id="line312" />
  <line
     class="l1"
     x1="33.700001"
     y1="-24.65"
     x2="32.713001"
     y2="-24.65"
     style="stroke-width:0.8;stroke-linecap:round"
     id="line314" />
  <line
     class="l1"
     x1="32.713001"
     y1="-24.65"
     x2="30.139999"
     y2="-22.077"
     style="stroke-width:0.8;stroke-linecap:round"
     id="line316" />
  <line
     class="l20"
     x1="0"
     y1="0"
     x2="100"
     y2="0"
     style="stroke-width:0;stroke-linecap:round"
     id="line318" />
  <line
     class="l20"
     x1="100"
     y1="0"
     x2="100"
     y2="-80"
     style="stroke-width:0;stroke-linecap:round"
     id="line320" />
  <line
     class="l20"
     x1="100"
     y1="-80"
     x2="0"
     y2="-80"
     style="stroke-width:0;stroke-linecap:round"
     id="line322" />
  <line
     class="l20"
     x1="0"
     y1="-80"
     x2="0"
     y2="0"
     style="stroke-width:0;stroke-linecap:round"
     id="line324" />
  <line
     class="l20"
     x1="18"
     y1="-7"
     x2="18"
     y2="-51"
     style="stroke-width:0.6;stroke-linecap:round;fill:#000000;stroke:#000000"
     id="line326" />
  <line
     class="l20"
     x1="18"
     y1="-51"
     x2="21"
     y2="-54"
     style="stroke-width:0.6;stroke-linecap:round;fill:#000000;stroke:#000000"
     id="line328" />
  <line
     class="l20"
     x1="21"
     y1="-54"
     x2="59"
     y2="-54"
     style="stroke-width:0.6;stroke-linecap:round;fill:#000000;stroke:#000000"
     id="line330" />
  <line
     class="l20"
     x1="59"
     y1="-54"
     x2="62"
     y2="-51"
     style="stroke-width:0.6;stroke-linecap:round;fill:#000000;stroke:#000000"
     id="line332" />
  <line
     class="l20"
     x1="62"
     y1="-51"
     x2="62"
     y2="-7"
     style="stroke-width:0.6;stroke-linecap:round;fill:#000000;stroke:#000000"
     id="line334" />
  <line
     class="l20"
     x1="62"
     y1="-7"
     x2="59"
     y2="-4"
     style="stroke-width:0.6;stroke-linecap:round;fill:#000000;stroke:#000000"
     id="line336" />
  <line
     class="l20"
     x1="59"
     y1="-4"
     x2="21"
     y2="-4"
     style="stroke-width:0.6;stroke-linecap:round;fill:#000000;stroke:#000000"
     id="line338" />
  <line
     class="l20"
     x1="21"
     y1="-4"
     x2="18"
     y2="-7"
     style="stroke-width:0.6;stroke-linecap:round;fill:#000000;stroke:#000000"
     id="line340" />
  <g
     id="g348">
    <title
       id="title342">PART C1</title>
    <rect
       class="l1"
       x="-0.64999998"
       y="-0.75"
       width="1.3"
       height="1.5"
       rx="0.000000"
       transform="translate(40.05,-29.2)"
       id="rect344" />
    <rect
       class="l1"
       x="-0.64999998"
       y="-0.75"
       width="1.3"
       height="1.5"
       rx="0.000000"
       transform="translate(41.95,-29.2)"
       id="rect346" />
  </g>
  <g
     id="g356">
    <title
       id="title350">PART C2</title>
    <rect
       class="l1"
       x="-0.64999998"
       y="-0.75"
       width="1.3"
       height="1.5"
       rx="0.000000"
       transform="rotate(180,16.475,-17.8)"
       id="rect352" />
    <rect
       class="l1"
       x="-0.64999998"
       y="-0.75"
       width="1.3"
       height="1.5"
       rx="0.000000"
       transform="rotate(180,15.525,-17.8)"
       id="rect354" />
  </g>
  <g
     id="g364">
    <title
       id="title358">PART C3</title>
    <rect
       class="l1"
       x="-0.64999998"
       y="-0.75"
       width="1.3"
       height="1.5"
       rx="0.000000"
       transform="rotate(180,17.125,-19)"
       id="rect360" />
    <rect
       class="l1"
       x="-0.64999998"
       y="-0.75"
       width="1.3"
       height="1.5"
       rx="0.000000"
       transform="rotate(180,16.175,-19)"
       id="rect362" />
  </g>
  <circle
     class="j1"
     cx="30.139999"
     cy="-22.077"
     r="1.27"
     id="circle368" />
  <circle
     class="j17"
     cx="30.139999"
     cy="-22.077"
     r="1.27"
     id="circle370"
     style="fill:#000000" />
  <circle
     class="j44"
     cx="30.139999"
     cy="-22.077"
     r="0.50800002"
     id="circle372" />
  <polygon
     class="l1"
     points="1.27,0.526051 0.526051,1.27 -0.526051,1.27 -1.27,0.526051 -1.27,-0.526051 -0.526051,-1.27 0.526051,-1.27 1.27,-0.526051 "
     transform="rotate(180,12.53,-11.0385)"
     id="polygon374" />
  <polygon
     class="l17"
     points="1.27,0.526051 0.526051,1.27 -0.526051,1.27 -1.27,0.526051 -1.27,-0.526051 -0.526051,-1.27 0.526051,-1.27 1.27,-0.526051 "
     transform="rotate(180,12.53,-11.0385)"
     id="polygon376"
     style="fill:#000000" />
  <circle
     class="j44"
     cx="25.059999"
     cy="-22.077"
     r="0.50800002"
     id="circle378" />
  <circle
     class="j1"
     cx="30.139999"
     cy="-32.599998"
     r="1.27"
     id="circle384" />
  <circle
     class="j17"
     cx="30.139999"
     cy="-32.599998"
     r="1.27"
     id="circle386"
     style="fill:#000000" />
  <circle
     class="j44"
     cx="30.139999"
     cy="-32.599998"
     r="0.50800002"
     id="circle388" />
  <polygon
     class="l1"
     points="1.27,0.526051 0.526051,1.27 -0.526051,1.27 -1.27,0.526051 -1.27,-0.526051 -0.526051,-1.27 0.526051,-1.27 1.27,-0.526051 "
     transform="rotate(180,12.53,-16.3)"
     id="polygon390" />
  <polygon
     class="l17"
     points="1.27,0.526051 0.526051,1.27 -0.526051,1.27 -1.27,0.526051 -1.27,-0.526051 -0.526051,-1.27 0.526051,-1.27 1.27,-0.526051 "
     transform="rotate(180,12.53,-16.3)"
     id="polygon392"
     style="fill:#000000" />
  <circle
     class="j44"
     cx="25.059999"
     cy="-32.599998"
     r="0.50800002"
     id="circle394" />
  <g
     id="g404">
    <title
       id="title398">PART C7</title>
    <rect
       class="l1"
       x="-0.64999998"
       y="-0.75"
       width="1.3"
       height="1.5"
       rx="0.000000"
       transform="rotate(-90,4.525,-29.175)"
       id="rect400" />
    <rect
       class="l1"
       x="-0.64999998"
       y="-0.75"
       width="1.3"
       height="1.5"
       rx="0.000000"
       transform="rotate(-90,3.575,-30.125)"
       id="rect402" />
  </g>
  <g
     id="g412">
    <title
       id="title406">PART D1</title>
    <rect
       class="l1"
       x="-0.89999998"
       y="-0.85000002"
       width="1.8"
       height="1.7"
       rx="0.000000"
       transform="translate(54.95,-15.3)"
       id="rect408" />
    <rect
       class="l1"
       x="-0.89999998"
       y="-0.85000002"
       width="1.8"
       height="1.7"
       rx="0.000000"
       transform="translate(50.85,-15.3)"
       id="rect410" />
  </g>
  <rect
     class="l1"
     x="-27.5364"
     y="-36.598202"
     width="3.3527999"
     height="1.6763999"
     rx="0.83819997"
     transform="rotate(90)"
     id="rect416" />
  <rect
     class="l17"
     x="-27.5364"
     y="-36.598202"
     width="3.3527999"
     height="1.6763999"
     rx="0.83819997"
     transform="rotate(90)"
     id="rect418"
     style="fill:#000000" />
  <circle
     class="j44"
     cx="35.759998"
     cy="-25.860001"
     r="0.55879998"
     id="circle420" />
  <rect
     class="l1"
     x="-27.5364"
     y="-39.138199"
     width="3.3527999"
     height="1.6763999"
     rx="0.83819997"
     transform="rotate(90)"
     id="rect422" />
  <rect
     class="l17"
     x="-27.5364"
     y="-39.138199"
     width="3.3527999"
     height="1.6763999"
     rx="0.83819997"
     transform="rotate(90)"
     id="rect424"
     style="fill:#000000" />
  <circle
     class="j44"
     cx="38.299999"
     cy="-25.860001"
     r="0.55879998"
     id="circle426" />
  <rect
     class="l1"
     x="-27.5364"
     y="-41.6782"
     width="3.3527999"
     height="1.6763999"
     rx="0.83819997"
     transform="rotate(90)"
     id="rect428" />
  <rect
     class="l17"
     x="-27.5364"
     y="-41.6782"
     width="3.3527999"
     height="1.6763999"
     rx="0.83819997"
     transform="rotate(90)"
     id="rect430"
     style="fill:#000000" />
  <circle
     class="j44"
     cx="40.84"
     cy="-25.860001"
     r="0.55879998"
     id="circle432" />
  <circle
     class="l20"
     cx="38.299999"
     cy="-10.874"
     r="1.651"
     style="stroke-width:3e-06"
     id="circle434" />
  <circle
     class="j45"
     cx="38.299999"
     cy="-10.874"
     r="1.651"
     id="circle436"
     style="fill:#000000" />
  <rect
     class="l1"
     x="47.476002"
     y="41.778"
     width="3.0480001"
     height="1.524"
     rx="0.76200002"
     transform="rotate(-90)"
     id="rect442" />
  <rect
     class="l17"
     x="47.476002"
     y="41.778"
     width="3.0480001"
     height="1.524"
     rx="0.76200002"
     transform="rotate(-90)"
     id="rect444"
     style="fill:#000000" />
  <circle
     class="j44"
     cx="42.540001"
     cy="-49"
     r="0.50800002"
     id="circle446" />
  <rect
     class="l1"
     x="47.476002"
     y="39.237999"
     width="3.0480001"
     height="1.524"
     rx="0.76200002"
     transform="rotate(-90)"
     id="rect448" />
  <rect
     class="l17"
     x="47.476002"
     y="39.237999"
     width="3.0480001"
     height="1.524"
     rx="0.76200002"
     transform="rotate(-90)"
     id="rect450"
     style="fill:#000000" />
  <circle
     class="j44"
     cx="40"
     cy="-49"
     r="0.50800002"
     id="circle452" />
  <rect
     class="l1"
     x="47.476002"
     y="36.698002"
     width="3.0480001"
     height="1.524"
     rx="0.76200002"
     transform="rotate(-90)"
     id="rect454" />
  <rect
     class="l17"
     x="47.476002"
     y="36.698002"
     width="3.0480001"
     height="1.524"
     rx="0.76200002"
     transform="rotate(-90)"
     id="rect456"
     style="fill:#000000" />
  <circle
     class="j44"
     cx="37.459999"
     cy="-49"
     r="0.50800002"
     id="circle458" />
  <rect
     class="l1"
     x="-36.824001"
     y="-46.792"
     width="3.0480001"
     height="1.524"
     rx="0.76200002"
     transform="rotate(90)"
     id="rect464" />
  <rect
     class="l17"
     x="-36.824001"
     y="-46.792"
     width="3.0480001"
     height="1.524"
     rx="0.76200002"
     transform="rotate(90)"
     id="rect466"
     style="fill:#000000" />
  <circle
     class="j44"
     cx="46.029999"
     cy="-35.299999"
     r="0.50800002"
     id="circle468" />
  <rect
     class="l1"
     x="-36.824001"
     y="-49.332001"
     width="3.0480001"
     height="1.524"
     rx="0.76200002"
     transform="rotate(90)"
     id="rect470" />
  <rect
     class="l17"
     x="-36.824001"
     y="-49.332001"
     width="3.0480001"
     height="1.524"
     rx="0.76200002"
     transform="rotate(90)"
     id="rect472"
     style="fill:#000000" />
  <circle
     class="j44"
     cx="48.57"
     cy="-35.299999"
     r="0.50800002"
     id="circle474" />
  <g
     id="g484">
    <title
       id="title478">PART L1</title>
    <rect
       class="l1"
       x="-1.46"
       y="-1.395"
       width="2.9200001"
       height="2.79"
       rx="0.000000"
       transform="rotate(90,42.34,12.76)"
       id="rect480" />
    <rect
       class="l1"
       x="-1.46"
       y="-1.395"
       width="2.9200001"
       height="2.79"
       rx="0.000000"
       transform="rotate(90,37.06,18.04)"
       id="rect482" />
  </g>
  <g
     id="g494">
    <title
       id="title486">PART Q1</title>
    <rect
       class="l1"
       x="-0.5"
       y="-0.80000001"
       width="1"
       height="1.6"
       rx="0.000000"
       transform="rotate(90,30.09,8.81)"
       id="rect488" />
    <rect
       class="l1"
       x="-0.5"
       y="-0.80000001"
       width="1"
       height="1.6"
       rx="0.000000"
       transform="rotate(90,27.81,11.09)"
       id="rect490" />
    <rect
       class="l1"
       x="-2.7"
       y="-3.0999999"
       width="5.4000001"
       height="6.1999998"
       rx="0.000000"
       transform="rotate(90,32.6,13.6)"
       id="rect492" />
  </g>
  <g
     id="g502">
    <title
       id="title496">PART R1</title>
    <rect
       class="l1"
       x="-0.89999998"
       y="-1.6"
       width="1.8"
       height="3.2"
       rx="0.000000"
       transform="rotate(90,28.85,6.55)"
       id="rect498" />
    <rect
       class="l1"
       x="-0.89999998"
       y="-1.6"
       width="1.8"
       height="3.2"
       rx="0.000000"
       transform="rotate(90,26.05,9.35)"
       id="rect500" />
  </g>
  <g
     id="g510">
    <title
       id="title504">PART R2</title>
    <rect
       class="l1"
       x="-0.64999998"
       y="-0.75"
       width="1.3"
       height="1.5"
       rx="0.000000"
       transform="rotate(90,39.075,6.925)"
       id="rect506" />
    <rect
       class="l1"
       x="-0.64999998"
       y="-0.75"
       width="1.3"
       height="1.5"
       rx="0.000000"
       transform="rotate(90,38.125,7.875)"
       id="rect508" />
  </g>
  <g
     id="g518">
    <title
       id="title512">PART R4</title>
    <rect
       class="l1"
       x="-0.64999998"
       y="-0.75"
       width="1.3"
       height="1.5"
       rx="0.000000"
       transform="translate(38.35,-41.9)"
       id="rect514" />
    <rect
       class="l1"
       x="-0.64999998"
       y="-0.75"
       width="1.3"
       height="1.5"
       rx="0.000000"
       transform="translate(40.25,-41.9)"
       id="rect516" />
  </g>
  <g
     id="g526">
    <title
       id="title520">PART R5</title>
    <rect
       class="l1"
       x="-0.64999998"
       y="-0.75"
       width="1.3"
       height="1.5"
       rx="0.000000"
       transform="translate(42.55,-41.9)"
       id="rect522" />
    <rect
       class="l1"
       x="-0.64999998"
       y="-0.75"
       width="1.3"
       height="1.5"
       rx="0.000000"
       transform="translate(44.45,-41.9)"
       id="rect524" />
  </g>
  <g
     id="g534">
    <title
       id="title528">PART R6</title>
    <rect
       class="l1"
       x="-0.64999998"
       y="-0.75"
       width="1.3"
       height="1.5"
       rx="0.000000"
       transform="rotate(180,17.125,-20.1)"
       id="rect530" />
    <rect
       class="l1"
       x="-0.64999998"
       y="-0.75"
       width="1.3"
       height="1.5"
       rx="0.000000"
       transform="rotate(180,16.175,-20.1)"
       id="rect532" />
  </g>
  <g
     id="g542">
    <title
       id="title536">PART R7</title>
    <rect
       class="l1"
       x="-0.64999998"
       y="-0.75"
       width="1.3"
       height="1.5"
       rx="0.000000"
       transform="translate(38.35,-44.1)"
       id="rect538" />
    <rect
       class="l1"
       x="-0.64999998"
       y="-0.75"
       width="1.3"
       height="1.5"
       rx="0.000000"
       transform="translate(40.25,-44.1)"
       id="rect540" />
  </g>
  <g
     id="g550">
    <title
       id="title544">PART R8</title>
    <rect
       class="l1"
       x="-0.64999998"
       y="-0.75"
       width="1.3"
       height="1.5"
       rx="0.000000"
       transform="translate(32.95,-31.2)"
       id="rect546" />
    <rect
       class="l1"
       x="-0.64999998"
       y="-0.75"
       width="1.3"
       height="1.5"
       rx="0.000000"
       transform="translate(34.85,-31.2)"
       id="rect548" />
  </g>
  <g
     id="g558">
    <title
       id="title552">PART R9</title>
    <rect
       class="l1"
       x="-0.64999998"
       y="-0.75"
       width="1.3"
       height="1.5"
       rx="0.000000"
       transform="rotate(180,17.425,-16.7)"
       id="rect554" />
    <rect
       class="l1"
       x="-0.64999998"
       y="-0.75"
       width="1.3"
       height="1.5"
       rx="0.000000"
       transform="rotate(180,16.475,-16.7)"
       id="rect556" />
  </g>
  <g
     id="g578">
    <title
       id="title560">PART U1</title>
    <rect
       class="l1"
       x="-0.30000001"
       y="-1.1"
       width="0.60000002"
       height="2.2"
       rx="0.000000"
       transform="rotate(-90,3.6025,-39.9975)"
       id="rect562" />
    <rect
       class="l1"
       x="-0.30000001"
       y="-1.1"
       width="0.60000002"
       height="2.2"
       rx="0.000000"
       transform="rotate(-90,2.9675,-40.6325)"
       id="rect564" />
    <rect
       class="l1"
       x="-0.30000001"
       y="-1.1"
       width="0.60000002"
       height="2.2"
       rx="0.000000"
       transform="rotate(-90,2.3325,-41.2675)"
       id="rect566" />
    <rect
       class="l1"
       x="-0.30000001"
       y="-1.1"
       width="0.60000002"
       height="2.2"
       rx="0.000000"
       transform="rotate(-90,1.6975,-41.9025)"
       id="rect568" />
    <rect
       class="l1"
       x="-0.30000001"
       y="-1.1"
       width="0.60000002"
       height="2.2"
       rx="0.000000"
       transform="rotate(-90,-0.9025,-39.3025)"
       id="rect570" />
    <rect
       class="l1"
       x="-0.30000001"
       y="-1.1"
       width="0.60000002"
       height="2.2"
       rx="0.000000"
       transform="rotate(-90,-0.2675,-38.6675)"
       id="rect572" />
    <rect
       class="l1"
       x="-0.30000001"
       y="-1.1"
       width="0.60000002"
       height="2.2"
       rx="0.000000"
       transform="rotate(-90,0.3675,-38.0325)"
       id="rect574" />
    <rect
       class="l1"
       x="-0.30000001"
       y="-1.1"
       width="0.60000002"
       height="2.2"
       rx="0.000000"
       transform="rotate(-90,1.0025,-37.3975)"
       id="rect576" />
  </g>
  <g
     id="g598">
    <title
       id="title580">PART U2</title>
    <rect
       class="l1"
       x="-0.30000001"
       y="-1.1"
       width="0.60000002"
       height="2.2"
       rx="0.000000"
       transform="rotate(-90,6.3525,-37.2475)"
       id="rect582" />
    <rect
       class="l1"
       x="-0.30000001"
       y="-1.1"
       width="0.60000002"
       height="2.2"
       rx="0.000000"
       transform="rotate(-90,5.7175,-37.8825)"
       id="rect584" />
    <rect
       class="l1"
       x="-0.30000001"
       y="-1.1"
       width="0.60000002"
       height="2.2"
       rx="0.000000"
       transform="rotate(-90,5.0825,-38.5175)"
       id="rect586" />
    <rect
       class="l1"
       x="-0.30000001"
       y="-1.1"
       width="0.60000002"
       height="2.2"
       rx="0.000000"
       transform="rotate(-90,4.4475,-39.1525)"
       id="rect588" />
    <rect
       class="l1"
       x="-0.30000001"
       y="-1.1"
       width="0.60000002"
       height="2.2"
       rx="0.000000"
       transform="rotate(-90,1.8475,-36.5525)"
       id="rect590" />
    <rect
       class="l1"
       x="-0.30000001"
       y="-1.1"
       width="0.60000002"
       height="2.2"
       rx="0.000000"
       transform="rotate(-90,2.4825,-35.9175)"
       id="rect592" />
    <rect
       class="l1"
       x="-0.30000001"
       y="-1.1"
       width="0.60000002"
       height="2.2"
       rx="0.000000"
       transform="rotate(-90,3.1175,-35.2825)"
       id="rect594" />
    <rect
       class="l1"
       x="-0.30000001"
       y="-1.1"
       width="0.60000002"
       height="2.2"
       rx="0.000000"
       transform="rotate(-90,3.7525,-34.6475)"
       id="rect596" />
  </g>
  <g
     id="g614">
    <title
       id="title600">PART U3</title>
    <rect
       class="l1"
       x="-0.2"
       y="-0.40000001"
       width="0.40000001"
       height="0.80000001"
       rx="0.000000"
       transform="translate(44.25,-26.7)"
       id="rect602" />
    <rect
       class="l1"
       x="-0.2"
       y="-0.40000001"
       width="0.40000001"
       height="0.80000001"
       rx="0.000000"
       transform="translate(44.9,-26.7)"
       id="rect604" />
    <rect
       class="l1"
       x="-0.2"
       y="-0.40000001"
       width="0.40000001"
       height="0.80000001"
       rx="0.000000"
       transform="translate(45.55,-26.7)"
       id="rect606" />
    <rect
       class="l1"
       x="-0.2"
       y="-0.40000001"
       width="0.40000001"
       height="0.80000001"
       rx="0.000000"
       transform="translate(45.55,-28.3)"
       id="rect608" />
    <rect
       class="l1"
       x="-0.2"
       y="-0.40000001"
       width="0.40000001"
       height="0.80000001"
       rx="0.000000"
       transform="translate(44.9,-28.3)"
       id="rect610" />
    <rect
       class="l1"
       x="-0.2"
       y="-0.40000001"
       width="0.40000001"
       height="0.80000001"
       rx="0.000000"
       transform="translate(44.25,-28.3)"
       id="rect612" />
  </g>
  <rect
     class="l1"
     x="9.3393002"
     y="29.204651"
     width="3.5813999"
     height="1.7907"
     rx="0.89534998"
     transform="rotate(-90)"
     id="rect618" />
  <rect
     class="l17"
     x="9.3393002"
     y="29.204651"
     width="3.5813999"
     height="1.7907"
     rx="0.89534998"
     transform="rotate(-90)"
     id="rect620"
     style="fill:#000000" />
  <circle
     class="j44"
     cx="30.1"
     cy="-11.13"
     r="0.59689999"
     id="circle622" />
  <rect
     class="l1"
     x="9.3393002"
     y="24.204651"
     width="3.5813999"
     height="1.7907"
     rx="0.89534998"
     transform="rotate(-90)"
     id="rect624" />
  <rect
     class="l17"
     x="9.3393002"
     y="24.204651"
     width="3.5813999"
     height="1.7907"
     rx="0.89534998"
     transform="rotate(-90)"
     id="rect626"
     style="fill:#000000" />
  <circle
     class="j44"
     cx="25.1"
     cy="-11.13"
     r="0.59689999"
     id="circle628" />
  <rect
     class="l1"
     x="9.3393002"
     y="50.604649"
     width="3.5813999"
     height="1.7907"
     rx="0.89534998"
     transform="rotate(-90)"
     id="rect634" />
  <rect
     class="l17"
     x="9.3393002"
     y="50.604649"
     width="3.5813999"
     height="1.7907"
     rx="0.89534998"
     transform="rotate(-90)"
     id="rect636"
     style="fill:#000000" />
  <circle
     class="j44"
     cx="51.5"
     cy="-11.13"
     r="0.59689999"
     id="circle638" />
  <rect
     class="l1"
     x="9.3393002"
     y="45.604649"
     width="3.5813999"
     height="1.7907"
     rx="0.89534998"
     transform="rotate(-90)"
     id="rect640" />
  <rect
     class="l17"
     x="9.3393002"
     y="45.604649"
     width="3.5813999"
     height="1.7907"
     rx="0.89534998"
     transform="rotate(-90)"
     id="rect642"
     style="fill:#000000" />
  <circle
     class="j44"
     cx="46.5"
     cy="-11.13"
     r="0.59689999"
     id="circle644" />
  <circle
     class="j44"
     cx="38.299999"
     cy="-10.874"
     r="0.30000001"
     id="circle1891" />
</svg>
